HIERARCHY
ROOT hip
{
  OFFSET 71.448 83.4533 46.0697
  CHANNELS 6 Xposition Yposition Zposition Zrotation Xrotation Yrotation
  JOINT abdomen
  {
    OFFSET 0 20.6881 -0.73152
    CHANNELS 3 Zrotation Xrotation Yrotation
    JOINT chest
    {
      OFFSET 0 11.7043 -0.48768
      CHANNELS 3 Zrotation Xrotation Yrotation
      JOINT neck
      {
        OFFSET 0 22.1894 -2.19456
        CHANNELS 3 Zrotation Xrotation Yrotation
        JOINT head
        {
          OFFSET -0.24384 7.07133 1.2192
          CHANNELS 3 Zrotation Xrotation Yrotation
          JOINT leftEye
          {
            OFFSET 4.14528 8.04674 8.04672
            CHANNELS 3 Zrotation Xrotation Yrotation
            End Site
            {
              OFFSET 1 0 0
            }
          }
          JOINT rightEye
          {
            OFFSET -3.6576 8.04674 8.04672
            CHANNELS 3 Zrotation Xrotation Yrotation
            End Site
            {
              OFFSET 1 0 0
            }
          }
        }
      }
      JOINT rCollar
      {
        OFFSET -2.68224 19.2634 -4.8768
        CHANNELS 3 Zrotation Xrotation Yrotation
        JOINT rShldr
        {
          OFFSET -8.77824 -1.95073 1.46304
          CHANNELS 3 Zrotation Xrotation Yrotation
          JOINT rForeArm
          {
            OFFSET -28.1742 -1.7115 0.48768
            CHANNELS 3 Zrotation Xrotation Yrotation
            JOINT rHand
            {
              OFFSET -22.5879 0.773209 7.07136
              CHANNELS 3 Zrotation Xrotation Yrotation
              JOINT rThumb1
              {
                OFFSET -1.2192 -0.487915 3.41376
                CHANNELS 3 Zrotation Xrotation Yrotation
                JOINT rThumb2
                {
                  OFFSET -3.37035 -0.52449 3.41376
                  CHANNELS 3 Zrotation Xrotation Yrotation
                  End Site
                  {
                    OFFSET -1.78271 -1.18214 1.43049
                  }
                }
              }
              JOINT rIndex1
              {
                OFFSET -7.75947 0.938293 5.60832
                CHANNELS 3 Zrotation Xrotation Yrotation
                JOINT rIndex2
                {
                  OFFSET -2.54057 -0.884171 1.56538
                  CHANNELS 3 Zrotation Xrotation Yrotation
                  End Site
                  {
                    OFFSET -1.62519 -0.234802 1.16502
                  }
                }
              }
              JOINT rMid1
              {
                OFFSET -8.24714 1.18213 3.41376
                CHANNELS 3 Zrotation Xrotation Yrotation
                JOINT rMid2
                {
                  OFFSET -3.10165 -0.590103 1.0647
                  CHANNELS 3 Zrotation Xrotation Yrotation
                  End Site
                  {
                    OFFSET -2.48547 -0.328903 0.83742
                  }
                }
              }
              JOINT rRing1
              {
                OFFSET -8.82822 0.546677 1.51678
                CHANNELS 3 Zrotation Xrotation Yrotation
                JOINT rRing2
                {
                  OFFSET -2.60934 -0.819778 -0.0198488
                  CHANNELS 3 Zrotation Xrotation Yrotation
                  End Site
                  {
                    OFFSET -2.33842 -0.294052 0.168128
                  }
                }
              }
              JOINT rPinky1
              {
                OFFSET -8.27202 -0.0477905 -0.4584
                CHANNELS 3 Zrotation Xrotation Yrotation
                JOINT rPinky2
                {
                  OFFSET -1.82734 -0.647385 -0.700984
                  CHANNELS 3 Zrotation Xrotation Yrotation
                  End Site
                  {
                    OFFSET -1.69225 -0.51767 -0.607171
                  }
                }
              }
            }
          }
        }
      }
      JOINT lCollar
      {
        OFFSET 2.68224 19.2634 -4.8768
        CHANNELS 3 Zrotation Xrotation Yrotation
        JOINT lShldr
        {
          OFFSET 8.77824 -1.95073 1.46304
          CHANNELS 3 Zrotation Xrotation Yrotation
          JOINT lForeArm
          {
            OFFSET 28.1742 -1.7115 0.48768
            CHANNELS 3 Zrotation Xrotation Yrotation
            JOINT lHand
            {
              OFFSET 22.5879 0.773209 7.07136
              CHANNELS 3 Zrotation Xrotation Yrotation
              JOINT lThumb1
              {
                OFFSET 1.2192 -0.487915 3.41376
                CHANNELS 3 Zrotation Xrotation Yrotation
                JOINT lThumb2
                {
                  OFFSET 3.37035 -0.52449 3.41376
                  CHANNELS 3 Zrotation Xrotation Yrotation
                  End Site
                  {
                    OFFSET 1.78271 -1.18214 1.43049
                  }
                }
              }
              JOINT lIndex1
              {
                OFFSET 7.75947 0.938293 5.60832
                CHANNELS 3 Zrotation Xrotation Yrotation
                JOINT lIndex2
                {
                  OFFSET 2.54057 -0.884171 1.56538
                  CHANNELS 3 Zrotation Xrotation Yrotation
                  End Site
                  {
                    OFFSET 1.62519 -0.234802 1.16502
                  }
                }
              }
              JOINT lMid1
              {
                OFFSET 8.24714 1.18213 3.41376
                CHANNELS 3 Zrotation Xrotation Yrotation
                JOINT lMid2
                {
                  OFFSET 3.10165 -0.590103 1.0647
                  CHANNELS 3 Zrotation Xrotation Yrotation
                  End Site
                  {
                    OFFSET 2.48547 -0.328903 0.83742
                  }
                }
              }
              JOINT lRing1
              {
                OFFSET 8.82822 0.546677 1.51678
                CHANNELS 3 Zrotation Xrotation Yrotation
                JOINT lRing2
                {
                  OFFSET 2.60934 -0.819778 -0.0198488
                  CHANNELS 3 Zrotation Xrotation Yrotation
                  End Site
                  {
                    OFFSET 2.33842 -0.294052 0.168128
                  }
                }
              }
              JOINT lPinky1
              {
                OFFSET 8.27202 -0.0477905 -0.4584
                CHANNELS 3 Zrotation Xrotation Yrotation
                JOINT lPinky2
                {
                  OFFSET 1.82734 -0.647385 -0.700984
                  CHANNELS 3 Zrotation Xrotation Yrotation
                  End Site
                  {
                    OFFSET 1.69225 -0.51767 -0.607171
                  }
                }
              }
            }
          }
        }
      }
    }
  }
  JOINT rButtock
  {
    OFFSET -8.77824 4.35084 1.2192
    CHANNELS 3 Zrotation Xrotation Yrotation
    JOINT rThigh
    {
      OFFSET 0 -1.70687 -2.19456
      CHANNELS 3 Zrotation Xrotation Yrotation
      JOINT rShin
      {
        OFFSET 0 -36.8199 0.73152
        CHANNELS 3 Zrotation Xrotation Yrotation
        JOINT rFoot
        {
          OFFSET 0.73152 -45.1104 -5.12064
          CHANNELS 3 Zrotation Xrotation Yrotation
          End Site
          {
            OFFSET -1.1221 -3.69964 12.103
          }
        }
      }
    }
  }
  JOINT lButtock
  {
    OFFSET 8.77824 4.35084 1.2192
    CHANNELS 3 Zrotation Xrotation Yrotation
    JOINT lThigh
    {
      OFFSET 0 -1.70687 -2.19456
      CHANNELS 3 Zrotation Xrotation Yrotation
      JOINT lShin
      {
        OFFSET 0 -36.8199 0.73152
        CHANNELS 3 Zrotation Xrotation Yrotation
        JOINT lFoot
        {
          OFFSET -0.73152 -45.1104 -5.12064
          CHANNELS 3 Zrotation Xrotation Yrotation
          End Site
          {
            OFFSET 1.1221 -3.69964 12.103
          }
        }
      }
    }
  }
}
MOTION
Frames:	6
Frame Time:	0.00833333
4.50626 79.2284 112.856 -14.0906 -18.4802 173.446 -9.04693 -18.5506 -7.99103 6.63887 13.1494 -2.57569 2.03182 12.9757 -11.31 10.962 -6.20636 -19.3656 -0 0 0 -0 0 0 -2.42443e-013 -2.3523e-013 -2.56705e-013 86.3044 13.332 -11.438 -15.9895 -8.67735 29.6504 -0.0309474 -5.01499 -0.706635 4.26105e-009 -3.35179e-009 8.06139e-010 7.36719e-009 -5.79912e-009 1.40401e-009 4.26105e-009 -3.35179e-009 8.06138e-010 7.73091 5.47488 0.417314 4.26105e-009 -3.35179e-009 8.06144e-010 2.90554 0.965183 0.102902 4.26106e-009 -3.35179e-009 8.06139e-010 10.2786 0.731801 0.0259123 4.26104e-009 -3.35179e-009 8.06137e-010 2.22167 -0.733487 -0.20892 -2.42493e-013 -2.3522e-013 -2.56911e-013 -63.2166 28.3743 2.42183 17.0351 -9.6872 -31.8856 0.00392811 -1.78858 0.251451 3.09734e-009 1.95708e-009 -8.45675e-010 5.35185e-009 3.38471e-009 -1.46647e-009 3.09734e-009 1.95707e-009 -8.45672e-010 -7.73091 5.47488 -0.417314 3.09734e-009 1.95707e-009 -8.45679e-010 -2.90554 0.965183 -0.102902 3.09733e-009 1.95707e-009 -8.45679e-010 -10.2786 0.731801 -0.0259123 3.09735e-009 1.95708e-009 -8.4568e-010 -2.22167 -0.733487 0.20892 -2.03217e-016 0 -3.88251e-019 -30.2375 -51.1194 -11.1584 -0.0777004 24.0635 0.484031 0.654495 -1.2228 -21.8646 2.03217e-016 0 3.88251e-019 12.5269 -27.7002 -15.8729 0.212715 34.8673 -0.926048 -1.35084 -23.0661 0.10335 
4.91126 79.0682 112.458 -14.4268 -18.3154 173.288 -9.07709 -18.5343 -8.039 6.76887 12.798 -2.5814 2.09919 13.1148 -11.3983 10.9435 -5.83413 -19.4792 -0 0 0 -0 0 0 -1.57945e-013 -1.91928e-013 -2.74928e-013 86.4349 13.4044 -12.0071 -15.9373 -8.629 29.5404 -0.0319282 -5.09328 -0.717725 2.63401e-009 -3.40102e-009 1.31713e-010 4.55695e-009 -5.88664e-009 2.32084e-010 2.63402e-009 -3.40102e-009 1.31713e-010 7.73091 5.47488 0.417314 2.63401e-009 -3.40102e-009 1.31719e-010 2.90554 0.965183 0.102902 2.63402e-009 -3.40102e-009 1.31715e-010 10.2786 0.731801 0.0259123 2.634e-009 -3.40102e-009 1.31714e-010 2.22167 -0.733487 -0.20892 -1.57959e-013 -1.91926e-013 -2.75065e-013 -63.1594 28.8436 3.01411 17.2668 -9.9218 -32.3897 0.0041277 -1.83165 0.257511 2.28708e-009 1.37128e-009 -8.54138e-010 3.95282e-009 2.37278e-009 -1.48037e-009 2.28707e-009 1.37128e-009 -8.5413e-010 -7.73091 5.47488 -0.417314 2.28708e-009 1.37128e-009 -8.54139e-010 -2.90554 0.965183 -0.102902 2.28707e-009 1.37128e-009 -8.54138e-010 -10.2786 0.731801 -0.0259123 2.28708e-009 1.37128e-009 -8.5414e-010 -2.22167 -0.733487 0.20892 -2.03217e-016 0 -3.88251e-019 -30.6943 -50.7353 -10.8083 -0.0724999 23.0801 0.432426 0.993602 -0.491976 -22.5138 2.03217e-016 0 3.88251e-019 13.065 -27.4359 -16.0502 0.216776 35.1424 -0.937619 -1.45411 -23.5069 -0.0438972 
5.35995 78.8981 112.085 -14.7484 -18.1481 173.144 -9.12058 -18.5114 -8.09212 6.8918 12.4439 -2.58688 2.17487 13.2556 -11.4799 10.913 -5.47662 -19.5819 -0 0 0 -0 0 0 -5.63858e-014 -1.30586e-013 -2.69045e-013 86.573 13.473 -12.5789 -15.8867 -8.58226 29.4337 -0.0328329 -5.16398 -0.727743 7.17488e-010 -3.17475e-009 -5.5704e-010 1.2461e-009 -5.49731e-009 -9.65164e-010 7.17492e-010 -3.17475e-009 -5.5704e-010 7.73091 5.47488 0.417314 7.17485e-010 -3.17475e-009 -5.57034e-010 2.90554 0.965183 0.102902 7.17495e-010 -3.17475e-009 -5.57037e-010 10.2786 0.731801 0.0259123 7.17481e-010 -3.17474e-009 -5.57036e-010 2.22167 -0.733487 -0.20892 -5.63684e-014 -1.30593e-013 -2.69118e-013 -63.0947 29.3175 3.61947 17.4975 -10.1579 -32.8988 0.00436937 -1.88427 0.264914 1.22393e-009 6.05679e-010 -8.22797e-010 2.11666e-009 1.04977e-009 -1.4253e-009 1.22392e-009 6.05675e-010 -8.22784e-010 -7.73091 5.47488 -0.417314 1.22393e-009 6.05673e-010 -8.22796e-010 -2.90554 0.965183 -0.102902 1.22392e-009 6.05674e-010 -8.22793e-010 -10.2786 0.731801 -0.0259123 1.22393e-009 6.05676e-010 -8.22795e-010 -2.22167 -0.733487 0.20892 -2.03217e-016 0 -3.88251e-019 -31.1403 -50.3547 -10.4844 -0.0684899 22.1378 0.381624 1.33041 0.197594 -23.1601 2.03217e-016 0 3.88251e-019 13.6088 -27.172 -16.2049 0.220647 35.4294 -0.951121 -1.54689 -23.9531 -0.160618 
5.81235 78.7265 111.701 -15.06 -17.968 172.99 -9.17634 -18.4943 -8.15799 6.9902 12.2 -2.59674 2.22585 13.3618 -11.5379 10.9518 -5.17138 -19.6438 -0 0 0 -0 0 0 1.54642e-014 -7.63277e-014 -2.33125e-013 86.7172 13.4645 -13.0557 -15.8359 -8.53556 29.3268 -0.0329104 -5.17124 -0.72877 -7.03782e-010 -2.70831e-009 -9.43174e-010 -1.21003e-009 -4.69123e-009 -1.63698e-009 -7.03777e-010 -2.70831e-009 -9.43174e-010 7.73091 5.47488 0.417314 -7.03784e-010 -2.70831e-009 -9.43168e-010 2.90554 0.965183 0.102902 -7.03776e-010 -2.70831e-009 -9.4317e-010 10.2786 0.731801 0.0259123 -7.03788e-010 -2.70831e-009 -9.43168e-010 2.22167 -0.733487 -0.20892 1.54976e-014 -7.63391e-014 -2.33174e-013 -62.9505 29.7715 4.10373 17.7032 -10.371 -33.3576 0.00467979 -1.9529 0.27457 3.48145e-010 -4.13408e-011 -7.64176e-010 6.03704e-010 -6.877e-011 -1.32336e-009 3.48141e-010 -4.1342e-011 -7.6416e-010 -7.73091 5.47488 -0.417314 3.48147e-010 -4.13437e-011 -7.64173e-010 -2.90554 0.965183 -0.102902 3.48138e-010 -4.13435e-011 -7.6417e-010 -10.2786 0.731801 -0.0259123 3.48143e-010 -4.13428e-011 -7.64173e-010 -2.22167 -0.733487 0.20892 -2.03217e-016 0 -3.88251e-019 -31.6008 -49.978 -10.2044 -0.0659259 21.2417 0.333012 1.6165 0.730908 -23.757 2.03217e-016 0 3.88251e-019 14.1656 -26.9229 -16.3299 0.224176 35.7419 -0.96856 -1.62275 -24.4037 -0.2256 
6.23622 78.5541 111.287 -15.3645 -17.7617 172.814 -9.23817 -18.4713 -8.23426 7.05488 12.0996 -2.61075 2.22805 13.4214 -11.5615 11.1086 -4.93286 -19.6423 -0 0 0 -0 0 0 3.80017e-014 -2.87581e-014 -1.42757e-013 86.8698 13.3439 -13.4001 -15.7858 -8.48962 29.2217 -0.0316827 -5.07851 -0.715627 -1.37867e-009 -1.80911e-009 -8.49131e-010 -2.37828e-009 -3.13444e-009 -1.47522e-009 -1.37867e-009 -1.80911e-009 -8.49133e-010 7.73091 5.47488 0.417314 -1.37867e-009 -1.80911e-009 -8.49125e-010 2.90554 0.965183 0.102902 -1.37867e-009 -1.80911e-009 -8.49127e-010 10.2786 0.731801 0.0259123 -1.37868e-009 -1.80911e-009 -8.49124e-010 2.22167 -0.733487 -0.20892 3.80294e-014 -2.87653e-014 -1.42845e-013 -62.694 30.2014 4.41171 17.8768 -10.554 -33.7462 0.00507195 -2.02651 0.284929 -2.80869e-010 -5.24732e-010 -6.59552e-010 -4.83819e-010 -9.05327e-010 -1.14232e-009 -2.80872e-010 -5.24731e-010 -6.59537e-010 -7.73091 5.47488 -0.417314 -2.80867e-010 -5.24733e-010 -6.59548e-010 -2.90554 0.965183 -0.102902 -2.80875e-010 -5.24733e-010 -6.59546e-010 -10.2786 0.731801 -0.0259123 -2.80871e-010 -5.24733e-010 -6.59549e-010 -2.22167 -0.733487 0.20892 -2.03217e-016 0 -3.88251e-019 -32.0768 -49.5894 -9.96065 -0.0644107 20.3767 0.285528 1.82305 1.05449 -24.2871 2.03217e-016 0 3.88251e-019 14.7394 -26.7087 -16.4147 0.227862 36.1163 -0.991488 -1.67433 -24.8741 -0.219191 
6.66303 78.3737 110.884 -15.6584 -17.5383 172.631 -9.30855 -18.4409 -8.31831 7.09672 12.0815 -2.6269 2.20391 13.4547 -11.5615 11.3299 -4.73917 -19.598 -0 0 0 -0 0 0 3.85479e-014 2.31576e-014 -8.71236e-015 87.0287 13.1563 -13.6676 -15.7368 -8.44492 29.1191 -0.0297273 -4.9228 -0.693571 -1.73967e-009 -5.25644e-010 -4.7496e-010 -3.00542e-009 -9.11549e-010 -8.27392e-010 -1.73966e-009 -5.25644e-010 -4.74967e-010 7.73091 5.47488 0.417314 -1.73967e-009 -5.25646e-010 -4.74955e-010 2.90554 0.965183 0.102902 -1.73966e-009 -5.25644e-010 -4.74959e-010 10.2786 0.731801 0.0259123 -1.73967e-009 -5.25642e-010 -4.74955e-010 2.22167 -0.733487 -0.20892 3.85551e-014 2.31594e-014 -8.88008e-015 -62.3633 30.6211 4.61915 18.0327 -10.7211 -34.0956 0.00554289 -2.10591 0.296106 -8.78587e-010 -9.92127e-010 -5.09599e-010 -1.51791e-009 -1.71487e-009 -8.83098e-010 -8.78589e-010 -9.92125e-010 -5.09587e-010 -7.73091 5.47488 -0.417314 -8.78585e-010 -9.92126e-010 -5.09595e-010 -2.90554 0.965183 -0.102902 -8.78592e-010 -9.92126e-010 -5.09595e-010 -10.2786 0.731801 -0.0259123 -8.78588e-010 -9.92127e-010 -5.09599e-010 -2.22167 -0.733487 0.20892 -2.03217e-016 0 -3.88251e-019 -32.5549 -49.1945 -9.74662 -0.0636976 19.5456 0.23873 1.97278 1.2407 -24.7748 2.03217e-016 0 3.88251e-019 15.3246 -26.5162 -16.4663 0.231855 36.5346 -1.01867 -1.70445 -25.3599 -0.156353 
